<?xml version="1.0" encoding="UTF-8" standalone="no"?>
<!-- Created with Inkscape (http://www.inkscape.org/) -->

<svg
   width="60mm"
   height="60mm"
   viewBox="0 0 60 60"
   version="1.1"
   id="svg1"
   inkscape:version="1.3.2 (091e20e, 2023-11-25, custom)"
   sodipodi:docname="Icon.svg"
   inkscape:export-filename="Icon.png"
   inkscape:export-xdpi="96"
   inkscape:export-ydpi="96"
   xmlns:inkscape="http://www.inkscape.org/namespaces/inkscape"
   xmlns:sodipodi="http://sodipodi.sourceforge.net/DTD/sodipodi-0.dtd"
   xmlns="http://www.w3.org/2000/svg"
   xmlns:svg="http://www.w3.org/2000/svg">
  <sodipodi:namedview
     id="namedview1"
     pagecolor="#eed9c4"
     bordercolor="#000000"
     borderopacity="0.25"
     inkscape:showpageshadow="2"
     inkscape:pageopacity="0.0"
     inkscape:pagecheckerboard="0"
     inkscape:deskcolor="#d1d1d1"
     inkscape:document-units="mm"
     inkscape:zoom="1.1483095"
     inkscape:cx="188.53802"
     inkscape:cy="128.44969"
     inkscape:window-width="2400"
     inkscape:window-height="1566"
     inkscape:window-x="-11"
     inkscape:window-y="-11"
     inkscape:window-maximized="1"
     inkscape:current-layer="layer1"
     inkscape:export-bgcolor="#eed9c400" />
  <defs
     id="defs1" />
  <g
     inkscape:label="Layer 1"
     inkscape:groupmode="layer"
     id="layer1"
     transform="translate(-55.297917,-114.56457)">
    <path
       d="m 58.984496,156.94404 c 0,-0.0499 0.129645,-1.08164 0.288099,-2.2928 0.158455,-1.21118 0.355388,-2.73833 0.437629,-3.39368 0.114582,-0.91305 0.178052,-1.21266 0.271564,-1.28192 0.06712,-0.0497 0.463248,-0.34158 0.880287,-0.64858 2.062547,-1.51831 3.736409,-3.71144 4.441952,-5.81993 0.344076,-1.02825 0.457149,-1.62848 0.514823,-2.73285 l 0.04778,-0.91487 1.234828,-0.59384 c 0.679155,-0.3266 2.663045,-1.2743 4.408644,-2.10599 1.745598,-0.83168 3.30147,-1.57727 3.457491,-1.65687 l 0.283676,-0.14472 -0.347912,-0.35323 c -0.191352,-0.19427 -0.333623,-0.36488 -0.316159,-0.37914 0.01747,-0.0142 1.640333,-0.65244 3.606374,-1.41819 1.966043,-0.76575 3.686283,-1.43813 3.822757,-1.49418 l 0.248136,-0.10191 -0.351155,-0.35652 c -0.251361,-0.25519 -0.321879,-0.36734 -0.248136,-0.39462 0.05666,-0.021 2.004069,-0.74893 4.327572,-1.61771 2.323504,-0.86878 4.403283,-1.62331 4.621733,-1.67673 0.579063,-0.14161 1.872884,-0.12776 2.53654,0.0271 0.780882,0.18228 1.533493,0.58524 3.349272,1.79327 4.006299,2.66538 6.986079,5.21714 8.330769,7.13412 l 0.30325,0.43232 -0.39506,0.18688 c -1.91038,0.90376 -3.43702,2.7298 -3.43702,4.11108 0,1.65626 1.7194,2.3054 4.28549,1.61793 l 0.56644,-0.15175 -0.50484,-0.19642 c -0.90893,-0.35364 -1.38364,-0.75441 -1.52783,-1.28989 -0.24739,-0.91871 0.55564,-1.89682 2.27268,-2.76819 0.84216,-0.42739 0.70834,-0.43044 1.39803,0.0319 0.34583,0.23183 1.13105,0.49945 1.85082,0.63079 0.90308,0.16478 0.9346,0.19801 1.36695,1.4401 1.16999,3.36129 1.18859,6.51473 0.0522,8.85102 -0.98121,2.01725 -2.62981,3.41223 -5.1673,4.37236 l -0.71515,0.2706 -0.44513,-0.24467 c -0.92816,-0.51018 -1.59969,-0.47433 -2.91767,0.15577 -0.45171,0.21595 -0.91729,0.39264 -1.03462,0.39264 -0.29937,0 -0.53291,-0.26169 -1.031153,-1.15543 -1.050134,-1.88371 -1.661129,-2.45529 -2.624639,-2.45529 -0.653395,0 -3.045723,0.80684 -3.045723,1.02721 0,0.12682 0.635035,1.69096 0.900724,2.21855 0.388555,0.77157 0.995974,1.68885 1.57476,2.37808 l 0.507996,0.60494 -2.015296,-0.0507 c -1.108412,-0.028 -2.132148,-0.0807 -2.27497,-0.11727 -0.458302,-0.11737 -0.839906,-0.46626 -1.319858,-1.20672 -0.250153,-0.38592 -0.697325,-1.07539 -0.993714,-1.53215 -0.296389,-0.45676 -0.781058,-1.21138 -1.077043,-1.67693 -0.295985,-0.46555 -0.598519,-0.86694 -0.672299,-0.89197 -0.07378,-0.025 -0.387973,-0.004 -0.698212,0.0462 -0.501924,0.0815 -0.600054,0.0779 -0.890704,-0.0331 -0.880471,-0.33625 -1.812233,-1.87623 -2.835541,-4.68646 -0.176593,-0.48497 -0.305324,-0.80052 -0.286071,-0.70122 0.286864,1.47943 0.360185,2.07647 0.363602,2.9608 0.0044,1.11719 -0.08997,1.42942 -0.573464,1.89898 -0.575121,0.55855 -1.507877,0.75426 -3.907325,0.81984 l -1.740402,0.0476 -0.752333,-0.75132 c -0.413783,-0.41323 -0.938863,-0.86107 -1.166845,-0.9952 -0.508609,-0.29925 -1.282446,-0.58659 -1.579735,-0.58659 -0.147745,0 -0.209254,-0.0299 -0.18542,-0.0903 0.01962,-0.0496 0.150547,-0.36666 0.290962,-0.70447 0.349664,-0.84124 0.555401,-1.6685 0.555401,-2.23324 v -0.47327 l -0.189593,0.3605 c -0.97297,1.85002 -2.746443,3.53962 -4.771582,4.54591 -0.825159,0.41002 -1.606486,0.68637 -2.850438,1.0082 -1.126591,0.29146 -1.601991,0.48462 -2.211424,0.89847 -1.096053,0.74432 -1.619206,1.77416 -1.619206,3.18746 0,0.38686 0.02197,0.77259 0.04882,0.8572 l 0.04882,0.15383 h -2.387947 c -1.868081,0 -2.387947,-0.0197 -2.387947,-0.0907 z m 47.426924,-9.2022 c 0.48654,-0.0221 0.88462,-0.0535 0.88462,-0.0697 0,-0.0162 -0.10128,-0.23163 -0.22505,-0.47873 -0.34952,-0.69773 -0.92783,-1.35691 -1.42143,-1.62018 l -0.24179,-0.12896 -0.17391,0.20113 c -0.0957,0.11062 -0.22757,0.38568 -0.29314,0.61126 -0.10148,0.34907 -0.10644,0.47954 -0.0334,0.87638 0.11853,0.64331 0.18794,0.75653 0.42718,0.69691 0.10571,-0.0264 0.59029,-0.066 1.07683,-0.0881 z m -35.528397,9.13041 c -0.561179,-0.86264 -2.802332,-4.5527 -2.779151,-4.57588 0.01659,-0.0166 0.319397,-0.11381 0.672898,-0.21604 0.62789,-0.18157 1.939529,-0.77239 2.524215,-1.13701 l 0.292764,-0.18257 0.739426,1.43511 c 0.406683,0.78932 0.941119,1.71946 1.187634,2.06699 0.558625,0.78753 1.444328,1.68916 2.230137,2.27024 0.330634,0.2445 0.614693,0.45739 0.631242,0.47309 0.01655,0.0157 -1.19021,0.0286 -2.681687,0.0286 h -2.711776 z m 10.136803,-0.0252 c -0.07354,-0.16141 -0.443174,-3.79132 -0.443174,-4.35212 v -0.1977 l 0.893651,-0.0886 c 0.937911,-0.093 1.75235,-0.28346 2.209202,-0.51653 l 0.271715,-0.13862 0.456382,1.24219 c 0.491093,1.33667 1.124496,2.64928 1.697106,3.51695 0.196586,0.29788 0.383418,0.58223 0.41518,0.63187 0.04584,0.0717 -0.506824,0.0903 -2.678401,0.0903 h -2.736151 z"
       style="fill:#ffffff;stroke-width:0.852928"
       id="path1-6" />
  </g>
</svg>
