<?xml version="1.0" encoding="UTF-8" standalone="no"?>
<!-- Created with Inkscape (http://www.inkscape.org/) -->

<svg
   width="219.17659mm"
   height="21.110899mm"
   viewBox="0 0 219.17659 21.110899"
   version="1.1"
   id="svg1"
   xml:space="preserve"
   inkscape:version="1.3.2 (091e20e, 2023-11-25, custom)"
   sodipodi:docname="Wordmark.svg"
   inkscape:export-filename="Wordmark.png"
   inkscape:export-xdpi="96"
   inkscape:export-ydpi="96"
   xmlns:inkscape="http://www.inkscape.org/namespaces/inkscape"
   xmlns:sodipodi="http://sodipodi.sourceforge.net/DTD/sodipodi-0.dtd"
   xmlns="http://www.w3.org/2000/svg"
   xmlns:svg="http://www.w3.org/2000/svg"><sodipodi:namedview
     id="namedview1"
     pagecolor="#eed9c4"
     bordercolor="#000000"
     borderopacity="0.25"
     inkscape:showpageshadow="2"
     inkscape:pageopacity="0.0"
     inkscape:pagecheckerboard="0"
     inkscape:deskcolor="#d1d1d1"
     inkscape:document-units="mm"
     inkscape:zoom="1.1483095"
     inkscape:cx="300.87708"
     inkscape:cy="289.55609"
     inkscape:window-width="2400"
     inkscape:window-height="1566"
     inkscape:window-x="-11"
     inkscape:window-y="-11"
     inkscape:window-maximized="1"
     inkscape:current-layer="layer1"
     inkscape:export-bgcolor="#eed9c400" /><defs
     id="defs1" /><g
     inkscape:label="Layer 1"
     inkscape:groupmode="layer"
     id="layer1"
     transform="translate(-25.429784,-71.848249)"><path
       style="fill:#ffffff"
       d="m 166.92471,92.844567 c -0.61778,-0.136 -1.33461,-0.41409 -1.68642,-0.65424 -0.54412,-0.37142 -1.14132,-1.03452 -6.31829,-7.01555 -2.92497,-3.37924 -5.37801,-6.19378 -5.45121,-6.25453 -0.12081,-0.10027 -0.13308,0.52273 -0.13308,6.75792 v 6.86836 h -3.00838 -3.00838 l 0.0256,-8.48783 c 0.0282,-9.32955 -0.001,-8.79297 0.54585,-9.95494 0.28748,-0.61057 1.10813,-1.43733 1.71993,-1.73272 0.84603,-0.40848 1.45632,-0.52443 2.75167,-0.52277 1.57613,0.002 2.46207,0.27074 3.429,1.04008 0.55399,0.44079 0.44133,0.3103 5.74651,6.65564 l 4.87916,5.8358 0.0217,-6.57663 0.0217,-6.57663 h 3.00926 3.00927 l -0.0286,8.53017 c -0.0262,7.82098 -0.0409,8.5724 -0.17671,9.03817 -0.48997,1.68051 -1.41383,2.68115 -2.81154,3.04521 -0.60271,0.15699 -1.83444,0.15917 -2.53704,0.004 z m 42.67199,-3e-5 c -1.57852,-0.29311 -2.89043,-1.14139 -3.78752,-2.44903 -0.42386,-0.61785 -0.42057,-0.61085 -4.42739,-9.40598 -3.07359,-6.74663 -3.76542,-8.3338 -3.76542,-8.63843 0,-0.10764 0.47722,-0.12457 3.51205,-0.12457 h 3.51206 l 0.0491,0.23284 c 0.0945,0.44828 0.4858,1.3832 3.28716,7.85283 2.97374,6.86771 2.98331,6.88646 3.38223,6.62158 0.17438,-0.11577 6.01784,-13.65969 6.17187,-14.30508 l 0.096,-0.40217 h 3.50818 c 3.01576,0 3.50163,0.0171 3.46148,0.12171 -0.0257,0.0669 -0.0907,0.28601 -0.14452,0.48683 -0.12067,0.45042 -7.36916,16.52399 -7.72106,17.12148 -0.96611,1.64038 -2.39316,2.62739 -4.2296,2.9254 -0.71812,0.11653 -2.17667,0.0977 -2.90457,-0.0374 z m 8.001,-0.1129 c 0,-0.26011 0.64654,-1.79043 2.36749,-5.60377 5.69321,-12.61516 5.37489,-11.92925 5.85039,-12.60634 0.57155,-0.81385 1.25773,-1.39666 2.15379,-1.82932 1.12534,-0.54336 1.80971,-0.66613 3.41844,-0.61321 1.49061,0.049 2.10071,0.19246 3.05856,0.71908 0.73509,0.40414 1.82412,1.49969 2.24617,2.25961 0.17946,0.32312 0.63853,1.27562 1.02015,2.11667 0.38162,0.84105 1.97908,4.34857 3.5499,7.79451 2.68498,5.89006 3.34378,7.40853 3.34378,7.7071 0,0.10764 -0.47694,0.12456 -3.50969,0.12456 h -3.50969 l -0.0882,-0.3175 c -0.0485,-0.17462 -0.0884,-0.34701 -0.0887,-0.38309 -0.001,-0.14319 -5.95583,-13.82953 -6.0773,-13.96791 -0.16612,-0.18922 -0.37942,-0.18886 -0.55118,9.3e-4 -0.16475,0.18205 -5.76167,13.20183 -6.0323,14.03257 l -0.19307,0.59267 -3.47931,0.0221 c -1.91362,0.0121 -3.47931,-0.01 -3.47931,-0.0487 z M 50.897814,92.365607 c -0.776068,-0.2457 -1.365846,-0.84476 -1.610044,-1.63538 -0.172094,-0.55717 -0.176723,-0.72827 -0.176723,-6.53224 v -5.96008 H 45.893714 42.67638 v 7.112 7.112 h -3.047999 -3.048 v -7.112 -7.112 h -4.195205 c -3.530299,0 -4.233448,-0.0198 -4.436501,-0.12478 -0.556794,-0.28793 -1.160861,-1.27904 -1.678453,-2.75389 -0.333053,-0.94901 -0.907053,-3.20434 -0.834099,-3.2773 0.03157,-0.0316 5.838069,-0.011 12.903329,0.0457 7.06526,0.0567 17.179803,0.10218 22.476761,0.10101 l 9.630833,-0.002 v 3.00567 3.00567 H 62.784713 55.12238 v 0.93133 0.93133 h 7.619999 7.62 v 2.28555 2.28555 l -7.598833,0.0216 -7.598833,0.0216 v 0.99875 0.99875 l 7.62,0.0173 7.619999,0.0172 0.02228,2.89983 0.02228,2.89983 -9.504945,-0.005 c -9.302526,-0.005 -9.516477,-0.008 -10.04651,-0.17621 z m 21.159758,-9.3652 c 0.0018,-9.10969 0.009,-9.56196 0.158696,-9.89149 0.187701,-0.41328 0.5058,-0.68073 0.952783,-0.80109 0.22189,-0.0598 2.875225,-0.0793 8.138113,-0.0598 7.766725,0.0287 7.812766,0.0298 8.528547,0.21813 1.247977,0.32827 2.047788,0.78136 2.929881,1.65978 0.651575,0.64886 0.832049,0.89215 1.166112,1.572 0.519698,1.05763 0.673561,1.80114 0.622001,3.00566 -0.03041,0.7104 -0.09391,1.09126 -0.267687,1.60544 -0.212824,0.62973 -0.813076,1.66515 -1.106491,1.90866 -0.11235,0.0932 -0.0733,0.16644 0.298495,0.55956 0.235265,0.24876 0.521,0.65315 0.634967,0.89865 0.396504,0.85411 0.451344,1.39763 0.502077,4.97603 0.02608,1.83938 0.07062,3.46816 0.09897,3.6195 l 0.05156,0.27516 h -3.048551 c -2.822025,0 -3.053411,-0.011 -3.113946,-0.14816 -0.03597,-0.0815 -0.08767,-1.48728 -0.114892,-3.12397 -0.04687,-2.81818 -0.05846,-2.98584 -0.21883,-3.16551 -0.373826,-0.41884 -0.393331,-0.42036 -5.415947,-0.42036 h -4.701719 v 3.429 3.429 h -3.048 -3.048 z m 15.575118,-2.79413 c 0.629146,-0.3161 0.866329,-1.10978 0.507518,-1.6983 -0.322234,-0.52853 -0.276579,-0.52407 -5.371444,-0.52407 h -4.617052 v 1.18533 1.18533 l 4.593166,-1.3e-4 c 4.203939,-1.2e-4 4.618135,-0.0127 4.887812,-0.14816 z m 8.63816,2.87879 c 3.32e-4,-6.6574 0.02826,-9.56157 0.09422,-9.79917 0.13213,-0.47597 0.56485,-0.8555 1.11127,-0.97467 0.32248,-0.0703 2.56677,-0.0884 8.1497,-0.0657 7.66277,0.0312 7.70858,0.0324 8.42434,0.22128 2.19553,0.57933 3.73563,1.96411 4.45884,4.00919 0.17363,0.49097 0.2275,0.83184 0.26067,1.64931 0.0656,1.61621 -0.26028,2.73412 -1.09609,3.76027 l -0.38048,0.46713 0.43777,0.47032 c 0.49161,0.52816 0.74768,1.01438 0.94183,1.78833 0.13066,0.52086 0.1426,0.84705 0.23087,6.30535 l 0.0264,1.62983 h -3.02267 -3.02268 l -0.0584,-0.1905 c -0.0321,-0.10477 -0.0772,-1.46685 -0.10022,-3.02683 -0.026,-1.76777 -0.0771,-2.92809 -0.13549,-3.07989 -0.061,-0.15845 -0.2143,-0.29834 -0.43882,-0.40031 -0.3225,-0.14647 -0.65449,-0.15687 -5.06529,-0.15861 l -4.72016,-0.002 v 3.429 3.429 h -3.048 -3.048003 z m 15.71498,-2.94739 c 0.59191,-0.44205 0.76171,-1.13495 0.39929,-1.62942 -0.39196,-0.53479 -0.28194,-0.52408 -5.38324,-0.52422 l -4.6355,-1.3e-4 v 1.18741 1.18741 l 4.69285,-0.0232 c 4.58913,-0.0227 4.69802,-0.0271 4.9266,-0.19781 z m 7.70818,11.96439 c 0.18396,-0.6234 0.13948,-0.52258 4.03654,-9.14762 1.93135,-4.27449 3.63904,-7.98788 3.79485,-8.25198 0.43546,-0.73809 1.5282,-1.79377 2.23446,-2.15869 1.07269,-0.55426 1.75028,-0.69693 3.29818,-0.69444 1.14929,0.002 1.45678,0.0313 2.02819,0.1942 1.71434,0.48879 2.97549,1.5654 3.83445,3.27337 0.14051,0.2794 0.93187,1.9939 1.75857,3.81 0.8267,1.8161 2.39773,5.26415 3.49116,7.66233 1.09344,2.39818 2.09558,4.67466 2.22698,5.05883 l 0.23891,0.6985 h -3.54058 -3.54058 l -0.10108,-0.40216 c -0.10607,-0.42203 -5.9637,-14.03747 -6.1213,-14.22833 -0.05,-0.0606 -0.20851,-0.0987 -0.35217,-0.0847 l -0.26122,0.0255 -2.94182,6.858 c -1.618,3.7719 -3.00865,7.07702 -3.09033,7.34471 l -0.14851,0.48672 -3.48794,1.2e-4 -3.48793,1.1e-4 z m 62.88101,0.35175 c -2.32269,-0.34751 -4.32872,-1.32298 -5.86586,-2.85239 -3.19181,-3.17577 -3.88007,-8.19728 -1.66615,-12.15613 1.50612,-2.69321 3.95408,-4.40504 7.1863,-5.02531 1.14902,-0.2205 7.50973,-0.22387 8.66755,-0.005 2.7534,0.52146 4.86829,1.79423 6.43202,3.87088 2.33245,3.09752 2.7038,7.22274 0.9645,10.71463 -1.35812,2.72662 -3.65184,4.51225 -6.77301,5.27269 -0.87743,0.21378 -0.93805,0.21687 -4.65666,0.23738 -2.07222,0.0114 -4.00213,-0.0143 -4.28869,-0.0572 z m 7.61854,-6.03156 c 1.38987,-0.4009 2.34749,-1.24638 2.85789,-2.52322 0.22396,-0.56028 0.30768,-1.71791 0.17049,-2.3576 -0.24612,-1.14762 -1.12645,-2.28947 -2.1558,-2.79622 -0.86388,-0.42529 -1.54325,-0.50104 -4.5235,-0.50436 -2.94225,-0.003 -3.53317,0.0645 -4.47908,0.51401 -0.9795,0.46543 -1.88402,1.60931 -2.1353,2.70037 -0.24893,1.08087 -0.0164,2.38494 0.57984,3.25151 0.70588,1.02598 1.52153,1.5402 2.84194,1.7917 0.92171,0.17556 6.17344,0.11709 6.84352,-0.0762 z"
       id="path1"
       sodipodi:nodetypes="csssscccccsssscccccsssccssssscsssscssssssscsssssssssscscssscccccsscccccccccscscsccccccccccccccccccccccccccccsssscsssscssssscccccccsscccsccscccssscsscccccccsccccccccsscccsccssssccsssscccssccsscccscssscssssccsssscssssss" /></g></svg>
